<svg xmlns="http://www.w3.org/2000/svg" viewBox="0 0 1199.25 1168.05">
  <style>
    path,polygon{fill:#0e1338}
    @media (prefers-color-scheme:dark){path,polygon{fill:#fff}}
  </style>
  <path d="M505.16,823.16h-212.44l-1.09-81.24c-5.54-73.96-66.04-130.01-140.29-128.3L0,613.55h0c-.01-120.61,97.76-218.4,218.37-218.4h782.92s0,.01,0,.01c.38,120.52-97.21,218.42-217.73,218.44l-278.23.03-.18,209.53Z"/>
  <path d="M1199.25,0c.26,111.52-90.23,202.14-201.76,202.14H294.59h0C294.66,90.48,385.2,0,496.86,0h702.39Z"/>
  <polygon points="505.73 1071.61 398.5 1168.05 292.17 1071.33 292.07 909.95 505.48 909.88 505.73 1071.61"/>
</svg>
